<svg width="235" height="67" viewBox="0 0 235 67" fill="none" xmlns="http://www.w3.org/2000/svg">
<path d="M64 8.19326H66.4167V28.6786H79.219V30.74H64V8.19326Z" fill="black"/>
<path d="M83.2316 8.19326H85.6484V30.74H83.2316V8.19326Z" fill="black"/>
<path d="M99.3898 30.9332C97.6915 30.9332 96.0586 30.6648 94.491 30.128C92.9451 29.5912 91.7477 28.8826 90.8985 28.0022L91.8456 26.1662C92.673 26.9822 93.7725 27.6479 95.1442 28.1632C96.5158 28.6571 97.931 28.904 99.3898 28.904C101.436 28.904 102.971 28.539 103.995 27.8089C105.018 27.0574 105.53 26.0911 105.53 24.9101C105.53 24.0082 105.247 23.2888 104.681 22.752C104.136 22.2152 103.461 21.8072 102.656 21.528C101.85 21.2274 100.729 20.9053 99.2918 20.5618C97.5718 20.1323 96.2001 19.7243 95.1768 19.3378C94.1535 18.9298 93.2717 18.3178 92.5315 17.5018C91.813 16.6859 91.4537 15.58 91.4537 14.1842C91.4537 13.0462 91.7585 12.0155 92.3682 11.0921C92.9778 10.1473 93.914 9.39575 95.1768 8.83745C96.4396 8.27915 98.0072 8 99.8797 8C101.186 8 102.46 8.18252 103.701 8.54756C104.964 8.89113 106.052 9.37428 106.967 9.997L106.15 11.8974C105.192 11.2746 104.169 10.813 103.08 10.5124C101.992 10.1903 100.925 10.0292 99.8797 10.0292C97.8766 10.0292 96.3634 10.4157 95.3401 11.1888C94.3386 11.9403 93.8378 12.9173 93.8378 14.1198C93.8378 15.0217 94.11 15.7518 94.6543 16.3101C95.2204 16.8469 95.9171 17.2656 96.7444 17.5663C97.5936 17.8454 98.7257 18.1568 100.141 18.5003C101.817 18.9083 103.167 19.3163 104.191 19.7243C105.236 20.1108 106.117 20.7121 106.836 21.528C107.554 22.3225 107.914 23.4069 107.914 24.7812C107.914 25.9193 107.598 26.9607 106.967 27.9055C106.357 28.8289 105.41 29.5697 104.125 30.128C102.841 30.6648 101.262 30.9332 99.3898 30.9332Z" fill="black"/>
<path d="M117.302 10.2547H109.268V8.19326H127.753V10.2547H119.719V30.74H117.302V10.2547Z" fill="black"/>
<path d="M147.78 28.6786V30.74H131.614V8.19326H147.29V10.2547H134.03V18.2749H145.853V20.3041H134.03V28.6786H147.78Z" fill="black"/>
<path d="M172.566 8.19326V30.74H170.574L155.877 12.4449V30.74H153.461V8.19326H155.453L170.182 26.4883V8.19326H172.566Z" fill="black"/>
<path d="M180.028 8.19326H182.444V30.74H180.028V8.19326Z" fill="black"/>
<path d="M208.988 8.19326V30.74H206.996L192.299 12.4449V30.74H189.883V8.19326H191.875L206.604 26.4883V8.19326H208.988Z" fill="black"/>
<path d="M232.551 19.4666H234.869V28.0666C233.803 28.9899 232.54 29.6985 231.081 30.1924C229.622 30.6863 228.087 30.9332 226.476 30.9332C224.19 30.9332 222.132 30.4394 220.304 29.4516C218.475 28.4638 217.038 27.1003 215.993 25.361C214.948 23.6002 214.425 21.6354 214.425 19.4666C214.425 17.2978 214.948 15.3438 215.993 13.6045C217.038 11.8437 218.475 10.4694 220.304 9.48164C222.132 8.49388 224.201 8 226.509 8C228.251 8 229.851 8.27915 231.31 8.83745C232.768 9.37428 233.998 10.1795 235 11.2532L233.498 12.767C231.691 11.0062 229.394 10.1258 226.607 10.1258C224.756 10.1258 223.08 10.5338 221.577 11.3498C220.097 12.1443 218.932 13.2609 218.083 14.6996C217.234 16.1168 216.809 17.7058 216.809 19.4666C216.809 21.2274 217.234 22.8164 218.083 24.2336C218.932 25.6509 220.097 26.7675 221.577 27.5834C223.058 28.3994 224.723 28.8074 226.574 28.8074C228.925 28.8074 230.918 28.2276 232.551 27.0681V19.4666Z" fill="black"/>
<path d="M184.34 59.4871C183.994 59.4871 183.695 59.363 183.444 59.1149C183.208 58.8667 183.09 58.5643 183.09 58.2076C183.09 57.8509 183.208 57.5563 183.444 57.3237C183.695 57.0755 183.994 56.9515 184.34 56.9515C184.686 56.9515 184.985 57.0755 185.236 57.3237C185.488 57.5563 185.614 57.8509 185.614 58.2076C185.614 58.5643 185.488 58.8667 185.236 59.1149C184.985 59.363 184.686 59.4871 184.34 59.4871Z" fill="black"/>
<path d="M187.564 64C187.045 64 186.558 63.9302 186.102 63.7906C185.63 63.6666 185.245 63.4727 184.946 63.2091L185.535 61.9529C186.023 62.3716 186.668 62.581 187.47 62.581C188.13 62.581 188.633 62.3871 188.979 61.9994C189.341 61.6117 189.522 61.0379 189.522 60.278V47.1347H191.196V60.278C191.196 61.4256 190.882 62.3329 190.253 62.9997C189.624 63.6666 188.728 64 187.564 64ZM190.371 44.4362C190.025 44.4362 189.734 44.3199 189.498 44.0873C189.262 43.8547 189.144 43.5755 189.144 43.2498C189.144 42.9397 189.262 42.6683 189.498 42.4357C189.734 42.203 190.025 42.0867 190.371 42.0867C190.717 42.0867 191.008 42.203 191.243 42.4357C191.479 42.6528 191.597 42.9164 191.597 43.2266C191.597 43.5678 191.479 43.8547 191.243 44.0873C191.008 44.3199 190.717 44.4362 190.371 44.4362Z" fill="black"/>
<path d="M199.202 59.4871C198.196 59.4871 197.229 59.3475 196.301 59.0684C195.389 58.7737 194.673 58.4092 194.154 57.975L194.909 56.6723C195.428 57.0755 196.081 57.409 196.867 57.6726C197.653 57.9207 198.471 58.0448 199.32 58.0448C200.452 58.0448 201.286 57.8742 201.82 57.533C202.371 57.1763 202.646 56.6801 202.646 56.0442C202.646 55.5945 202.496 55.2455 202.198 54.9974C201.899 54.7338 201.521 54.5399 201.065 54.4159C200.609 54.2763 200.004 54.1445 199.249 54.0204C198.243 53.8343 197.433 53.6482 196.82 53.4621C196.206 53.2605 195.68 52.927 195.239 52.4618C194.815 51.9965 194.603 51.353 194.603 50.531C194.603 49.5075 195.035 48.67 195.9 48.0187C196.765 47.3673 197.968 47.0416 199.509 47.0416C200.311 47.0416 201.113 47.1502 201.915 47.3673C202.716 47.5689 203.377 47.8403 203.896 48.1815L203.165 49.5075C202.143 48.8096 200.924 48.4606 199.509 48.4606C198.439 48.4606 197.63 48.6467 197.079 49.0189C196.545 49.3911 196.277 49.8797 196.277 50.4845C196.277 50.9497 196.427 51.3219 196.725 51.6011C197.04 51.8802 197.425 52.0896 197.881 52.2292C198.337 52.3532 198.966 52.4851 199.768 52.6246C200.759 52.8107 201.553 52.9968 202.15 53.1829C202.748 53.369 203.259 53.687 203.684 54.1367C204.108 54.5864 204.32 55.2068 204.32 55.9977C204.32 57.0678 203.864 57.9207 202.952 58.5566C202.056 59.1769 200.806 59.4871 199.202 59.4871Z" fill="black"/>
<path d="M74.6975 36.824C76.7224 36.824 78.4751 37.1569 79.9556 37.8225C81.4579 38.4882 82.6118 39.433 83.4174 40.657C84.223 41.8809 84.6258 43.3304 84.6258 45.0053C84.6258 46.6587 84.223 48.1081 83.4174 49.3536C82.6118 50.5775 81.4579 51.5224 79.9556 52.188C78.4751 52.8322 76.7224 53.1543 74.6975 53.1543H70.0927V59.3708H64.802V36.824H74.6975ZM74.4036 48.9026C75.993 48.9026 77.2014 48.5698 78.0287 47.9041C78.8561 47.217 79.2698 46.2507 79.2698 45.0053C79.2698 43.7384 78.8561 42.7721 78.0287 42.1064C77.2014 41.4193 75.993 41.0757 74.4036 41.0757H70.0927V48.9026H74.4036Z" fill="black"/>
<path d="M102.969 59.3708L98.5598 53.0899H93.6937V59.3708H88.403V36.824H98.2986C100.323 36.824 102.076 37.1569 103.557 37.8225C105.059 38.4882 106.213 39.433 107.018 40.657C107.824 41.8809 108.227 43.3304 108.227 45.0053C108.227 46.6802 107.813 48.1296 106.986 49.3536C106.18 50.5561 105.026 51.4794 103.524 52.1236L108.651 59.3708H102.969ZM102.871 45.0053C102.871 43.7384 102.457 42.7721 101.63 42.1064C100.802 41.4193 99.594 41.0757 98.0046 41.0757H93.6937V48.9348H98.0046C99.594 48.9348 100.802 48.5913 101.63 47.9041C102.457 47.217 102.871 46.2507 102.871 45.0053Z" fill="black"/>
<path d="M123.49 59.7573C121.117 59.7573 118.972 59.2527 117.056 58.2434C115.162 57.2342 113.671 55.8492 112.582 54.0884C111.515 52.3061 110.982 50.3091 110.982 48.0974C110.982 45.8857 111.515 43.8994 112.582 42.1386C113.671 40.3563 115.162 38.9606 117.056 37.9514C118.972 36.9421 121.117 36.4375 123.49 36.4375C125.863 36.4375 127.997 36.9421 129.891 37.9514C131.785 38.9606 133.277 40.3563 134.365 42.1386C135.454 43.8994 135.998 45.8857 135.998 48.0974C135.998 50.3091 135.454 52.3061 134.365 54.0884C133.277 55.8492 131.785 57.2342 129.891 58.2434C127.997 59.2527 125.863 59.7573 123.49 59.7573ZM123.49 55.3124C124.84 55.3124 126.059 55.0117 127.148 54.4105C128.236 53.7878 129.085 52.9288 129.695 51.8337C130.326 50.7386 130.642 49.4931 130.642 48.0974C130.642 46.7016 130.326 45.4562 129.695 44.3611C129.085 43.266 128.236 42.4178 127.148 41.8165C126.059 41.1938 124.84 40.8824 123.49 40.8824C122.14 40.8824 120.921 41.1938 119.832 41.8165C118.744 42.4178 117.884 43.266 117.252 44.3611C116.642 45.4562 116.338 46.7016 116.338 48.0974C116.338 49.4931 116.642 50.7386 117.252 51.8337C117.884 52.9288 118.744 53.7878 119.832 54.4105C120.921 55.0117 122.14 55.3124 123.49 55.3124Z" fill="black"/>
<path d="M153.548 59.3708L148.028 51.5438L142.607 59.3708H136.532L144.991 47.9041L136.957 36.824H142.966L148.224 44.1356L153.384 36.824H159.1L151.131 47.7109L159.655 59.3708H153.548Z" fill="black"/>
<path d="M172.444 51.3828V59.3708H167.153V51.3184L158.303 36.824H163.92L170.027 46.8412L176.134 36.824H181.327L172.444 51.3828Z" fill="black"/>
<path d="M6.19523 30.4281C6.19523 31.4064 6.0427 32.1461 5.73763 32.6471C5.43256 33.1482 4.93976 33.5061 4.25922 33.7208C4.93976 33.9356 5.43256 34.2935 5.73763 34.7946C6.0427 35.2956 6.19523 36.0353 6.19523 37.0136L6.19523 44.8517C6.19523 46.7128 7.06351 47.6434 8.80005 47.6434L9.68005 47.6434L9.68005 50.4708L8.13125 50.4708C6.37124 50.4708 5.04536 50.0175 4.15362 49.1108C3.26189 48.228 2.81601 46.9156 2.81601 45.1738L2.81601 36.942C2.81601 35.749 2.28801 35.1525 1.23201 35.1525L1.57515e-06 35.1525L1.70031e-06 32.2892L1.23201 32.2892C2.28801 32.2892 2.81601 31.6927 2.81601 30.4997L2.81601 22.2679C2.81601 20.526 3.26189 19.2137 4.15363 18.3309C5.04536 17.4242 6.37123 16.9708 8.13124 16.9708L9.68005 16.9708L9.68005 19.7983L8.80005 19.7983C7.06351 19.7983 6.19523 20.7289 6.19523 22.59L6.19523 30.4281Z" fill="url(#paint0_linear)"/>
<path d="M22.1122 28.7281C22.1122 30.1955 21.8834 31.305 21.4258 32.0566C20.9682 32.8082 20.229 33.345 19.2082 33.6672C20.229 33.9893 20.9682 34.5261 21.4258 35.2777C21.8834 36.0293 22.1122 37.1388 22.1122 38.6063L22.1122 50.3635C22.1122 53.1551 23.4146 54.551 26.0194 54.551L27.3394 54.551L27.3394 58.7922L25.0162 58.7922C22.3762 58.7922 20.3874 58.1121 19.0498 56.7521C17.7122 55.4278 17.0434 53.4594 17.0434 50.8466L17.0434 38.4989C17.0434 36.7094 16.2514 35.8146 14.6674 35.8146L12.8194 35.8146L12.8194 31.5197L14.6674 31.5197C16.2514 31.5197 17.0434 30.625 17.0434 28.8354L17.0434 16.4877C17.0434 13.875 17.7122 11.9065 19.0498 10.5822C20.3874 9.22218 22.3762 8.54216 25.0162 8.54216L27.3394 8.54216L27.3394 12.7833L26.0194 12.7833C23.4146 12.7833 22.1122 14.1792 22.1122 16.9708L22.1122 28.7281Z" fill="url(#paint1_linear)"/>
<path d="M42.0304 26.9145C42.0304 28.871 41.7254 30.3504 41.1152 31.3525C40.5051 32.3547 39.5195 33.0705 38.1584 33.5C39.5195 33.9295 40.5051 34.6453 41.1152 35.6474C41.7254 36.6495 42.0304 38.1289 42.0304 40.0854L42.0304 55.7617C42.0304 59.4839 43.767 61.345 47.2401 61.345L49.0001 61.345L49.0001 67L45.9025 67C42.3825 67 39.7307 66.0933 37.9472 64.2799C36.1637 62.5142 35.272 59.8896 35.272 56.4059L35.272 39.9423C35.272 37.5562 34.216 36.3632 32.104 36.3632L29.64 36.3632L29.64 30.6367L32.104 30.6367C34.216 30.6367 35.272 29.4437 35.272 27.0577L35.272 10.594C35.272 7.11036 36.1638 4.48572 37.9472 2.72005C39.7307 0.90666 42.3825 -3.42748e-05 45.9025 -3.41991e-05L49.0001 -3.41326e-05L49.0001 5.65488L47.2401 5.65488C43.767 5.65488 42.0304 7.51599 42.0304 11.2382L42.0304 26.9145Z" fill="url(#paint2_linear)"/>
<defs>
<linearGradient id="paint0_linear" x1="57.1667" y1="19.9189" x2="8.20493" y2="42.6365" gradientUnits="userSpaceOnUse">
<stop stop-color="#336BFB"/>
<stop offset="1" stop-color="#F02D2D"/>
</linearGradient>
<linearGradient id="paint1_linear" x1="57.1667" y1="19.9189" x2="8.20493" y2="42.6365" gradientUnits="userSpaceOnUse">
<stop stop-color="#336BFB"/>
<stop offset="1" stop-color="#F02D2D"/>
</linearGradient>
<linearGradient id="paint2_linear" x1="57.1667" y1="19.9189" x2="8.20493" y2="42.6365" gradientUnits="userSpaceOnUse">
<stop stop-color="#336BFB"/>
<stop offset="1" stop-color="#F02D2D"/>
</linearGradient>
</defs>
</svg>
